<svg width="36" height="36" viewBox="0 0 36 36" fill="none" xmlns="http://www.w3.org/2000/svg">
<g clip-path="url(#clip0_104_26)">
<rect x="13.1569" width="30" height="19.5" transform="rotate(45.4933 13.1569 0)" fill="white"/>
<path d="M34.6034 17.0827L19.1985 1.67791C18.1327 0.612026 16.6577 0 15.1492 0H3.27276C1.46859 0 0 1.46774 0 3.27276V15.1484C0 16.6769 0.596071 18.1159 1.67791 19.1985L17.0827 34.6034C17.984 35.5039 19.1825 36 20.4545 36C21.7265 36 22.925 35.5038 23.8263 34.6034L34.6033 23.8264C35.5046 22.9267 35.9999 21.729 35.9999 20.4546C35.9999 19.1802 35.5046 17.9824 34.6034 17.0827ZM8.85946 10.0168L7.12394 11.7526C6.96416 11.9124 6.75476 11.9923 6.54543 11.9923C6.33611 11.9923 6.12678 11.9124 5.96693 11.7526C5.6473 11.433 5.6473 10.9152 5.96693 10.5957L8.28003 8.28218C8.28003 8.28218 8.28041 8.28141 8.2808 8.28095C8.28118 8.28057 8.28157 8.28057 8.28157 8.28057L10.5947 5.96708C10.9015 5.66026 11.4448 5.66026 11.7516 5.96708L14.0656 8.28103C14.3852 8.60066 14.3852 9.11841 14.0656 9.43796C13.7459 9.75759 13.2282 9.75759 12.9086 9.43796L11.1732 7.70252L10.0162 8.85969L11.1732 10.0172C11.4928 10.3369 11.4928 10.8546 11.1732 11.1742C11.0134 11.3339 10.804 11.4139 10.5947 11.4139C10.3853 11.4139 10.176 11.3339 10.0162 11.1742L8.85946 10.0168ZM13.4872 18.9348C13.2779 18.9348 13.0685 18.8549 12.9087 18.6951C12.5891 18.3755 12.5891 17.857 12.9087 17.5382L14.0672 16.3804C14.3853 16.0616 14.3853 15.5423 14.0672 15.2226L13.4871 14.645L11.7517 16.3804C11.4321 16.7 10.9143 16.7 10.5947 16.3804C10.2751 16.0608 10.2751 15.543 10.5947 15.2235L12.8879 12.9319C12.8943 12.924 12.9007 12.9167 12.9087 12.9095C12.9151 12.9023 12.9231 12.8951 12.9311 12.888L15.2243 10.5957C15.5439 10.276 16.0616 10.276 16.3812 10.5957L17.5381 11.7526C18.4953 12.7098 18.4953 14.2663 17.5381 15.2235C17.1067 15.6549 16.5426 15.9066 15.9369 15.9386C15.9049 16.5211 15.6668 17.094 15.2242 17.5374L14.0656 18.6952C13.9059 18.8549 13.6965 18.9348 13.4872 18.9348ZM18.6951 22.166C19.0148 22.4856 19.0148 23.0034 18.6951 23.323C18.5354 23.4827 18.326 23.5627 18.1166 23.5627C17.9073 23.5627 17.698 23.4827 17.5381 23.323L15.2242 21.009C14.9045 20.6894 14.9045 20.1716 15.2242 19.8521L19.852 15.2234C20.0054 15.07 20.2131 14.9837 20.4305 14.9837C20.6479 14.9837 20.8556 15.07 21.009 15.2234L23.323 17.5381C23.6426 17.8578 23.6426 18.3755 23.323 18.6951C23.0033 19.0147 22.4856 19.0147 22.166 18.6951L20.4306 16.9589L19.2733 18.1163L20.4306 19.2736C20.7502 19.5932 20.7502 20.1109 20.4306 20.4305C20.2708 20.5903 20.0614 20.6702 19.8521 20.6702C19.6427 20.6702 19.4334 20.5903 19.2736 20.4305L18.1165 19.2734L16.9596 20.4305L18.6951 22.166ZM27.9508 23.323C27.6312 23.6426 27.1135 23.6426 26.7939 23.323L25.0585 21.5875L23.9015 22.7444L25.0585 23.9014C25.3781 24.221 25.3781 24.7388 25.0585 25.0583C24.8987 25.2181 24.6893 25.298 24.48 25.298C24.2706 25.298 24.0613 25.2181 23.9015 25.0583L22.7445 23.9014L21.5876 25.0583L23.323 26.7945C23.6427 27.1142 23.6427 27.6319 23.323 27.9515C23.1633 28.1112 22.9539 28.1912 22.7445 28.1912C22.5352 28.1912 22.3259 28.1112 22.166 27.9515L19.8521 25.6367C19.5324 25.3171 19.5324 24.7994 19.8521 24.4798L24.4799 19.852C24.7995 19.5324 25.3173 19.5324 25.6368 19.852L27.9508 22.1659C28.2705 22.4856 28.2705 23.0034 27.9508 23.323Z" fill="#9465F6"/>
<path d="M15.8011 14.3062H15.8027C16.0217 14.3062 16.2262 14.2207 16.3813 14.0665C16.7009 13.7477 16.7009 13.2283 16.3813 12.9096L15.8027 12.3311L14.6458 13.488L15.2243 14.0657C15.3793 14.2215 15.5838 14.3062 15.8011 14.3062Z" fill="#9465F6"/>
</g>
<defs>
<clipPath id="clip0_104_26">
<rect width="36" height="36" fill="white"/>
</clipPath>
</defs>
</svg>
