<svg width="24" height="24" viewBox="0 0 24 24" fill="none" xmlns="http://www.w3.org/2000/svg">
<path d="M16.5 0H7.5C3.3585 0 0 3.3585 0 7.5V16.5C0 20.6415 3.3585 24 7.5 24H16.5C20.6415 24 24 20.6415 24 16.5V7.5C24 3.3585 20.6415 0 16.5 0ZM21.75 16.5C21.75 19.395 19.395 21.75 16.5 21.75H7.5C4.605 21.75 2.25 19.395 2.25 16.5V7.5C2.25 4.605 4.605 2.25 7.5 2.25H16.5C19.395 2.25 21.75 4.605 21.75 7.5V16.5Z" fill="#98A2BA"/>
<path d="M11.9997 6.00012C8.68616 6.00012 5.99966 8.68662 5.99966 12.0001C5.99966 15.3136 8.68616 18.0001 11.9997 18.0001C15.3132 18.0001 17.9997 15.3136 17.9997 12.0001C17.9997 8.68662 15.3132 6.00012 11.9997 6.00012ZM11.9997 15.7501C9.93266 15.7501 8.24966 14.0671 8.24966 12.0001C8.24966 9.93162 9.93266 8.25012 11.9997 8.25012C14.0667 8.25012 15.7497 9.93162 15.7497 12.0001C15.7497 14.0671 14.0667 15.7501 11.9997 15.7501Z" fill="#98A2BA"/>
<path d="M18.6466 6.32542C19.0746 6.21673 19.3334 5.78169 19.2247 5.35373C19.116 4.92577 18.681 4.66694 18.253 4.77562C17.8251 4.88431 17.5662 5.31935 17.6749 5.74731C17.7836 6.17527 18.2186 6.4341 18.6466 6.32542Z" fill="#98A2BA"/>
</svg>
