<svg width="24" height="24" viewBox="0 0 24 24" fill="none" xmlns="http://www.w3.org/2000/svg">
<path d="M7.8192 21.0106C16.3102 21.0106 20.9536 13.9761 20.9536 7.87625C20.9536 7.67646 20.9494 7.47749 20.9405 7.27962C21.8418 6.62796 22.6251 5.81476 23.2432 4.88914C22.4161 5.25694 21.5258 5.5042 20.5922 5.61607C21.5452 5.04435 22.277 4.14034 22.6221 3.06267C21.7302 3.59146 20.7424 3.97563 19.6908 4.18313C18.8485 3.28585 17.649 2.72473 16.3211 2.72473C13.7719 2.72473 11.7045 4.792 11.7045 7.3403C11.7045 7.70274 11.7451 8.05499 11.8243 8.39293C7.98762 8.19988 4.58538 6.36309 2.30883 3.56986C1.91254 4.25193 1.68386 5.04449 1.68386 5.89016C1.68386 7.49152 2.49885 8.90561 3.73805 9.73258C2.98072 9.70932 2.26934 9.50141 1.64739 9.15535C1.64671 9.17476 1.64671 9.19361 1.64671 9.21425C1.64671 11.4499 3.23789 13.3166 5.35042 13.7396C4.9624 13.8451 4.55414 13.9019 4.1331 13.9019C3.83616 13.9019 3.54665 13.8727 3.2654 13.8187C3.85308 15.6528 5.55737 16.9875 7.57785 17.025C5.99782 18.2634 4.00747 19.001 1.8443 19.001C1.47223 19.001 1.10443 18.9797 0.743103 18.937C2.78615 20.2465 5.21214 21.0108 7.81933 21.0108" fill="#98A2BA"/>
</svg>
