<svg width="18" height="18" viewBox="0 0 18 18" fill="none" xmlns="http://www.w3.org/2000/svg">
<path d="M9 3C7.4087 3 5.88258 3.63214 4.75736 4.75736C3.63214 5.88258 3 7.4087 3 9C3 10.5913 3.63214 12.1174 4.75736 13.2426C5.88258 14.3679 7.4087 15 9 15C10.5913 15 12.1174 14.3679 13.2426 13.2426C14.3679 12.1174 15 10.5913 15 9C15 7.4087 14.3679 5.88258 13.2426 4.75736C12.1174 3.63214 10.5913 3 9 3ZM1.5 9C1.5 4.85775 4.85775 1.5 9 1.5C13.1423 1.5 16.5 4.85775 16.5 9C16.5 13.1423 13.1423 16.5 9 16.5C4.85775 16.5 1.5 13.1423 1.5 9Z" fill="#7A7790"/>
<path d="M11.7804 6.96971C11.921 7.11036 12 7.30109 12 7.49996C12 7.69883 11.921 7.88957 11.7804 8.03021L8.78037 11.0302C8.63973 11.1708 8.44899 11.2498 8.25012 11.2498C8.05125 11.2498 7.86052 11.1708 7.71987 11.0302L6.21987 9.53021C6.14824 9.46103 6.0911 9.37827 6.0518 9.28677C6.01249 9.19526 5.9918 9.09685 5.99093 8.99726C5.99007 8.89768 6.00905 8.79892 6.04676 8.70675C6.08447 8.61457 6.14016 8.53084 6.21058 8.46042C6.281 8.39 6.36473 8.33431 6.45691 8.2966C6.54908 8.25889 6.64784 8.23991 6.74742 8.24077C6.84701 8.24164 6.94542 8.26233 7.03693 8.30164C7.12843 8.34094 7.21119 8.39808 7.28037 8.46971L8.25012 9.43946L10.7199 6.96971C10.8605 6.82911 11.0512 6.75012 11.2501 6.75012C11.449 6.75012 11.6397 6.82911 11.7804 6.96971Z" fill="#7A7790"/>
</svg>
